<?xml version="1.0" encoding="UTF-8"?>
<svg width="581px" height="91px" viewBox="0 0 581 91" version="1.1" xmlns="http://www.w3.org/2000/svg" xmlns:xlink="http://www.w3.org/1999/xlink">
    <title>allchain bridge</title>
    <defs>
        <path d="M11.3305,34.4 C14.7275,34.4 17.4651667,33.4898333 19.5435,31.6695 C21.6218333,29.8491667 22.661,27.6633333 22.661,25.112 C22.661,23.65 22.3886667,22.3958333 21.844,21.3495 C21.2993333,20.3031667 20.5898333,19.4933333 19.7155,18.92 C18.8411667,18.3466667 17.8736667,17.8665 16.813,17.4795 C15.7523333,17.0925 14.6845,16.7628333 13.6095,16.4905 C12.5345,16.2181667 11.5598333,15.9315 10.6855,15.6305 C9.81116667,15.3295 9.10166667,14.8995 8.557,14.3405 C8.01233333,13.7815 7.74,13.0433333 7.74,12.126 C7.74,11.2086667 8.03383333,10.5063333 8.6215,10.019 C9.20916667,9.53166667 9.96166667,9.288 10.879,9.288 C11.7963333,9.288 12.5488333,9.58183333 13.1365,10.1695 C13.7241667,10.7571667 14.0753333,11.5956667 14.19,12.685 L14.19,12.685 L22.188,12.685 C22.102,9.503 21.0556667,7.17383333 19.049,5.6975 C17.0423333,4.22116667 14.4121667,3.483 11.1585,3.483 C7.90483333,3.483 5.23166667,4.32866667 3.139,6.02 C1.04633333,7.71133333 0,9.96166667 0,12.771 C0,14.2043333 0.272333333,15.4441667 0.817,16.4905 C1.36166667,17.5368333 2.07116667,18.3395 2.9455,18.8985 C3.81983333,19.4575 4.78733333,19.9376667 5.848,20.339 C6.90866667,20.7403333 7.9765,21.0771667 9.0515,21.3495 C10.1265,21.6218333 11.1011667,21.9156667 11.9755,22.231 C12.8498333,22.5463333 13.5593333,22.9763333 14.104,23.521 C14.6486667,24.0656667 14.921,24.768 14.921,25.628 C14.921,26.488 14.62,27.1975 14.018,27.7565 C13.416,28.3155 12.5846667,28.595 11.524,28.595 C9.25933333,28.595 8.02666667,27.391 7.826,24.983 L7.826,24.983 L0,24.983 C0,27.993 1.03916667,30.315 3.1175,31.949 C5.19583333,33.583 7.9335,34.4 11.3305,34.4 Z M44.484,34.099 L49.73,17.3060645 L55.019,34.099 L59.4785576,34.099 L63.447,34.099 L71.875,3.913 L63.963,3.913 L59.491,20.3580905 L54.331,3.913 L45.989,3.913 L40.614,20.7020905 L35.368,3.913 L27.499,3.913 L36.056,34.099 L44.484,34.099 Z M84.754,34.099 L84.754,21.586 L93.956,21.586 L93.956,15.996 L84.754,15.996 L84.754,9.503 L97.052,9.503 L97.052,3.913 L77.401,3.913 L77.401,34.099 L84.754,34.099 Z M117.628,34.099 L117.628,9.503 L125.884,9.503 L125.884,3.913 L102.062,3.913 L102.062,9.503 L110.275,9.503 L110.275,34.099 L117.628,34.099 Z M152.158,34.099 L153.835,29.025 L164.671,29.025 L166.348,34.099 L174.217,34.099 L163.768,3.827 L154.824,3.827 L144.332,34.099 L152.158,34.099 Z M162.822,23.435 L155.684,23.435 L159.253,14.4363506 L162.822,23.435 Z M187.182,34.099 L187.182,2.279 L179.829,2.279 L179.829,34.099 L187.182,34.099 Z M202.985,34.099 L202.985,2.279 L195.632,2.279 L195.632,34.099 L202.985,34.099 Z M225.152,34.357 C228.506,34.357 231.487333,33.4683333 234.096,31.691 C236.704667,29.9136667 238.525,27.4483333 239.557,24.295 L239.557,24.295 L230.785,24.295 C229.638333,26.5023333 227.803667,27.606 225.281,27.606 C222.758333,27.606 220.773167,26.8176667 219.3255,25.241 C217.877833,23.6643333 217.154,21.5573333 217.154,18.92 C217.154,16.2826667 217.877833,14.1756667 219.3255,12.599 C220.773167,11.0223333 222.758333,10.234 225.281,10.234 C227.803667,10.234 229.638333,11.3376667 230.785,13.545 L230.785,13.545 L239.557,13.545 C238.525,10.3916667 236.704667,7.92633333 234.096,6.149 C231.487333,4.37166667 228.506,3.483 225.152,3.483 C220.823333,3.483 217.161167,4.93783333 214.1655,7.8475 C211.169833,10.7571667 209.672,14.448 209.672,18.92 C209.672,23.392 211.162667,27.09 214.144,30.014 C217.154,32.9093333 220.823333,34.357 225.152,34.357 Z M253.64,34.099 L253.64,21.07 C253.64,19.522 254.0485,18.3251667 254.8655,17.4795 C255.6825,16.6338333 256.807667,16.211 258.241,16.211 C259.674333,16.211 260.7995,16.6338333 261.6165,17.4795 C262.4335,18.3251667 262.842,19.522 262.842,21.07 L262.842,21.07 L262.842,34.099 L270.152,34.099 L270.152,20.081 C270.152,16.9276667 269.299167,14.4336667 267.5935,12.599 C265.887833,10.7643333 263.659,9.847 260.907,9.847 C257.581667,9.847 255.159333,11.1083333 253.64,13.631 L253.64,13.631 L253.64,2.279 L246.287,2.279 L246.287,34.099 L253.64,34.099 Z M287.46,34.4 C290.441333,34.4 292.820667,33.1386667 294.598,30.616 L294.598,30.616 L294.598,34.099 L301.951,34.099 L301.951,10.105 L294.598,10.105 L294.598,13.244 C292.964,10.9793333 290.6205,9.847 287.5675,9.847 C284.5145,9.847 281.927333,11.0008333 279.806,13.3085 C277.684667,15.6161667 276.624,18.5616667 276.624,22.145 C276.624,25.7283333 277.684667,28.6666667 279.806,30.96 C281.927333,33.2533333 284.478667,34.4 287.46,34.4 Z M289.352,28.036 C287.976,28.036 286.757667,27.5271667 285.697,26.5095 C284.636333,25.4918333 284.106,24.037 284.106,22.145 C284.106,20.253 284.636333,18.791 285.697,17.759 C286.757667,16.727 287.976,16.211 289.352,16.211 C290.728,16.211 291.946333,16.7198333 293.007,17.7375 C294.067667,18.7551667 294.598,20.21 294.598,22.102 C294.598,23.994 294.067667,25.456 293.007,26.488 C291.946333,27.52 290.728,28.036 289.352,28.036 Z M314.056,8.643 C315.26,8.643 316.277667,8.22733333 317.109,7.396 C317.940333,6.56466667 318.356,5.53983333 318.356,4.3215 C318.356,3.10316667 317.940333,2.07833333 317.109,1.247 C316.277667,0.415666667 315.26,0 314.056,0 C312.852,0 311.834333,0.415666667 311.003,1.247 C310.171667,2.07833333 309.756,3.10316667 309.756,4.3215 C309.756,5.53983333 310.171667,6.56466667 311.003,7.396 C311.834333,8.22733333 312.852,8.643 314.056,8.643 Z M317.754,34.099 L317.754,10.105 L310.401,10.105 L310.401,34.099 L317.754,34.099 Z M333.557,34.099 L333.557,21.07 C333.557,19.522 333.9655,18.3251667 334.7825,17.4795 C335.5995,16.6338333 336.724667,16.211 338.158,16.211 C339.591333,16.211 340.7165,16.6338333 341.5335,17.4795 C342.3505,18.3251667 342.759,19.522 342.759,21.07 L342.759,21.07 L342.759,34.099 L350.069,34.099 L350.069,20.081 C350.069,16.9276667 349.216167,14.4336667 347.5105,12.599 C345.804833,10.7643333 343.576,9.847 340.824,9.847 C337.498667,9.847 335.076333,11.1083333 333.557,13.631 L333.557,13.631 L333.557,10.105 L326.204,10.105 L326.204,34.099 L333.557,34.099 Z M387.05,34.099 C390.203333,34.099 392.6615,33.3895 394.4245,31.9705 C396.1875,30.5515 397.069,28.638 397.069,26.23 C397.069,24.338 396.467,22.6896667 395.263,21.285 C394.059,19.8803333 392.439333,19.0346667 390.404,18.748 C394.388667,17.544 396.381,15.2363333 396.381,11.825 C396.381,9.53166667 395.470833,7.63966667 393.6505,6.149 C391.830167,4.65833333 389.386333,3.913 386.319,3.913 L386.319,3.913 L373.204,3.913 L373.204,34.099 L387.05,34.099 Z M385.373,16.039 L380.557,16.039 L380.557,9.503 L385.373,9.503 C386.433667,9.503 387.2865,9.7825 387.9315,10.3415 C388.5765,10.9005 388.899,11.7175 388.899,12.7925 C388.899,13.8675 388.5765,14.6773333 387.9315,15.222 C387.2865,15.7666667 386.433667,16.039 385.373,16.039 L385.373,16.039 Z M386.104,28.509 L380.557,28.509 L380.557,21.629 L386.19,21.629 C387.193333,21.629 388.010333,21.9443333 388.641,22.575 C389.271667,23.2056667 389.587,24.0513333 389.587,25.112 C389.587,26.1726667 389.257333,27.004 388.598,27.606 C387.938667,28.208 387.107333,28.509 386.104,28.509 L386.104,28.509 Z M411.539,34.099 L411.539,22.747 C411.539,20.7403333 411.961833,19.3356667 412.8075,18.533 C413.653167,17.7303333 414.921667,17.329 416.613,17.329 L416.613,17.329 L418.419,17.329 L418.419,9.847 C415.552333,9.847 413.259,11.4236667 411.539,14.577 L411.539,14.577 L411.539,10.105 L404.186,10.105 L404.186,34.099 L411.539,34.099 Z M428.073,8.643 C429.277,8.643 430.294667,8.22733333 431.126,7.396 C431.957333,6.56466667 432.373,5.53983333 432.373,4.3215 C432.373,3.10316667 431.957333,2.07833333 431.126,1.247 C430.294667,0.415666667 429.277,0 428.073,0 C426.869,0 425.851333,0.415666667 425.02,1.247 C424.188667,2.07833333 423.773,3.10316667 423.773,4.3215 C423.773,5.53983333 424.188667,6.56466667 425.02,7.396 C425.851333,8.22733333 426.869,8.643 428.073,8.643 Z M431.771,34.099 L431.771,10.105 L424.418,10.105 L424.418,34.099 L431.771,34.099 Z M449.294,34.4 C452.275333,34.4 454.654667,33.1386667 456.432,30.616 L456.432,30.616 L456.432,34.099 L463.785,34.099 L463.785,2.279 L456.432,2.279 L456.432,13.244 C454.798,10.9793333 452.4545,9.847 449.4015,9.847 C446.3485,9.847 443.761333,11.0008333 441.64,13.3085 C439.518667,15.6161667 438.458,18.5616667 438.458,22.145 C438.458,25.7283333 439.518667,28.6666667 441.64,30.96 C443.761333,33.2533333 446.312667,34.4 449.294,34.4 Z M451.186,28.036 C449.81,28.036 448.591667,27.5271667 447.531,26.5095 C446.470333,25.4918333 445.94,24.037 445.94,22.145 C445.94,20.253 446.470333,18.791 447.531,17.759 C448.591667,16.727 449.81,16.211 451.186,16.211 C452.562,16.211 453.780333,16.7198333 454.841,17.7375 C455.901667,18.7551667 456.432,20.21 456.432,22.102 C456.432,23.994 455.901667,25.456 454.841,26.488 C453.780333,27.52 452.562,28.036 451.186,28.036 Z M483.759,45.967 C485.851667,45.967 487.6935,45.6516667 489.2845,45.021 C490.8755,44.3903333 492.129667,43.5016667 493.047,42.355 C494.881667,40.119 495.799,37.324 495.799,33.97 L495.799,33.97 L495.799,10.105 L488.446,10.105 L488.446,13.244 C486.812,10.9793333 484.4685,9.847 481.4155,9.847 C478.3625,9.847 475.775333,11.0008333 473.654,13.3085 C471.532667,15.6161667 470.472,18.5616667 470.472,22.145 C470.472,25.7283333 471.532667,28.6666667 473.654,30.96 C475.775333,33.2533333 478.326667,34.4 481.308,34.4 C484.289333,34.4 486.668667,33.1386667 488.446,30.616 L488.446,30.616 L488.446,33.97 C488.446,35.9193333 488.001667,37.3455 487.113,38.2485 C486.224333,39.1515 485.106333,39.603 483.759,39.603 C481.007,39.603 479.287,38.7 478.599,36.894 L478.599,36.894 L471.375,36.894 C471.661667,39.9613333 472.88,42.2403333 475.03,43.731 C477.18,45.2216667 480.089667,45.967 483.759,45.967 Z M483.2,28.036 C481.824,28.036 480.605667,27.5271667 479.545,26.5095 C478.484333,25.4918333 477.954,24.037 477.954,22.145 C477.954,20.253 478.484333,18.791 479.545,17.759 C480.605667,16.727 481.824,16.211 483.2,16.211 C484.576,16.211 485.794333,16.7198333 486.855,17.7375 C487.915667,18.7551667 488.446,20.21 488.446,22.102 C488.446,23.994 487.915667,25.456 486.855,26.488 C485.794333,27.52 484.576,28.036 483.2,28.036 Z M514.44,34.4 C517.278,34.4 519.729,33.6618333 521.793,32.1855 C523.857,30.7091667 525.233,28.767 525.921,26.359 L525.921,26.359 L517.966,26.359 C517.622,26.789 517.3425,27.0971667 517.1275,27.2835 C516.9125,27.4698333 516.575667,27.6561667 516.117,27.8425 C515.658333,28.0288333 514.963167,28.122 514.0315,28.122 C513.099833,28.122 512.232667,27.7851667 511.43,27.1115 C510.627333,26.4378333 510.154333,25.5706667 510.011,24.51 L510.011,24.51 L526.523,24.51 C526.637667,23.7933333 526.695,23.0193333 526.695,22.188 C526.695,18.318 525.534,15.2936667 523.212,13.115 C520.89,10.9363333 517.966,9.847 514.44,9.847 C510.914,9.847 508.040167,10.9506667 505.8185,13.158 C503.596833,15.3653333 502.486,18.3323333 502.486,22.059 C502.486,25.7856667 503.604,28.7741667 505.84,31.0245 C508.076,33.2748333 510.942667,34.4 514.44,34.4 Z M519.041,19.909 L510.054,19.909 C510.254667,18.791 510.756333,17.8808333 511.559,17.1785 C512.361667,16.4761667 513.350667,16.125 514.526,16.125 C515.701333,16.125 516.719,16.4761667 517.579,17.1785 C518.439,17.8808333 518.926333,18.791 519.041,19.909 L519.041,19.909 Z" id="path-1"></path>
        <path d="M11.3305,34.4 C14.7275,34.4 17.4651667,33.4898333 19.5435,31.6695 C21.6218333,29.8491667 22.661,27.6633333 22.661,25.112 C22.661,23.65 22.3886667,22.3958333 21.844,21.3495 C21.2993333,20.3031667 20.5898333,19.4933333 19.7155,18.92 C18.8411667,18.3466667 17.8736667,17.8665 16.813,17.4795 C15.7523333,17.0925 14.6845,16.7628333 13.6095,16.4905 C12.5345,16.2181667 11.5598333,15.9315 10.6855,15.6305 C9.81116667,15.3295 9.10166667,14.8995 8.557,14.3405 C8.01233333,13.7815 7.74,13.0433333 7.74,12.126 C7.74,11.2086667 8.03383333,10.5063333 8.6215,10.019 C9.20916667,9.53166667 9.96166667,9.288 10.879,9.288 C11.7963333,9.288 12.5488333,9.58183333 13.1365,10.1695 C13.7241667,10.7571667 14.0753333,11.5956667 14.19,12.685 L14.19,12.685 L22.188,12.685 C22.102,9.503 21.0556667,7.17383333 19.049,5.6975 C17.0423333,4.22116667 14.4121667,3.483 11.1585,3.483 C7.90483333,3.483 5.23166667,4.32866667 3.139,6.02 C1.04633333,7.71133333 0,9.96166667 0,12.771 C0,14.2043333 0.272333333,15.4441667 0.817,16.4905 C1.36166667,17.5368333 2.07116667,18.3395 2.9455,18.8985 C3.81983333,19.4575 4.78733333,19.9376667 5.848,20.339 C6.90866667,20.7403333 7.9765,21.0771667 9.0515,21.3495 C10.1265,21.6218333 11.1011667,21.9156667 11.9755,22.231 C12.8498333,22.5463333 13.5593333,22.9763333 14.104,23.521 C14.6486667,24.0656667 14.921,24.768 14.921,25.628 C14.921,26.488 14.62,27.1975 14.018,27.7565 C13.416,28.3155 12.5846667,28.595 11.524,28.595 C9.25933333,28.595 8.02666667,27.391 7.826,24.983 L7.826,24.983 L0,24.983 C0,27.993 1.03916667,30.315 3.1175,31.949 C5.19583333,33.583 7.9335,34.4 11.3305,34.4 Z M44.484,34.099 L49.73,14.964 L55.019,34.099 L63.447,34.099 L71.875,3.913 L63.963,3.913 L59.491,25.284 L54.331,3.913 L45.989,3.913 L40.614,25.628 L35.368,3.913 L27.499,3.913 L36.056,34.099 L44.484,34.099 Z M84.754,34.099 L84.754,21.586 L93.956,21.586 L93.956,15.996 L84.754,15.996 L84.754,9.503 L97.052,9.503 L97.052,3.913 L77.401,3.913 L77.401,34.099 L84.754,34.099 Z M117.628,34.099 L117.628,9.503 L125.884,9.503 L125.884,3.913 L102.062,3.913 L102.062,9.503 L110.275,9.503 L110.275,34.099 L117.628,34.099 Z M152.158,34.099 L153.835,29.025 L164.671,29.025 L166.348,34.099 L174.217,34.099 L163.768,3.827 L154.824,3.827 L144.332,34.099 L152.158,34.099 Z M162.822,23.435 L155.684,23.435 L159.253,12.685 L162.822,23.435 Z M187.182,34.099 L187.182,2.279 L179.829,2.279 L179.829,34.099 L187.182,34.099 Z M202.985,34.099 L202.985,2.279 L195.632,2.279 L195.632,34.099 L202.985,34.099 Z M225.152,34.357 C228.506,34.357 231.487333,33.4683333 234.096,31.691 C236.704667,29.9136667 238.525,27.4483333 239.557,24.295 L239.557,24.295 L230.785,24.295 C229.638333,26.5023333 227.803667,27.606 225.281,27.606 C222.758333,27.606 220.773167,26.8176667 219.3255,25.241 C217.877833,23.6643333 217.154,21.5573333 217.154,18.92 C217.154,16.2826667 217.877833,14.1756667 219.3255,12.599 C220.773167,11.0223333 222.758333,10.234 225.281,10.234 C227.803667,10.234 229.638333,11.3376667 230.785,13.545 L230.785,13.545 L239.557,13.545 C238.525,10.3916667 236.704667,7.92633333 234.096,6.149 C231.487333,4.37166667 228.506,3.483 225.152,3.483 C220.823333,3.483 217.161167,4.93783333 214.1655,7.8475 C211.169833,10.7571667 209.672,14.448 209.672,18.92 C209.672,23.392 211.162667,27.09 214.144,30.014 C217.154,32.9093333 220.823333,34.357 225.152,34.357 Z M253.64,34.099 L253.64,21.07 C253.64,19.522 254.0485,18.3251667 254.8655,17.4795 C255.6825,16.6338333 256.807667,16.211 258.241,16.211 C259.674333,16.211 260.7995,16.6338333 261.6165,17.4795 C262.4335,18.3251667 262.842,19.522 262.842,21.07 L262.842,21.07 L262.842,34.099 L270.152,34.099 L270.152,20.081 C270.152,16.9276667 269.299167,14.4336667 267.5935,12.599 C265.887833,10.7643333 263.659,9.847 260.907,9.847 C257.581667,9.847 255.159333,11.1083333 253.64,13.631 L253.64,13.631 L253.64,2.279 L246.287,2.279 L246.287,34.099 L253.64,34.099 Z M287.46,34.4 C290.441333,34.4 292.820667,33.1386667 294.598,30.616 L294.598,30.616 L294.598,34.099 L301.951,34.099 L301.951,10.105 L294.598,10.105 L294.598,13.244 C292.964,10.9793333 290.6205,9.847 287.5675,9.847 C284.5145,9.847 281.927333,11.0008333 279.806,13.3085 C277.684667,15.6161667 276.624,18.5616667 276.624,22.145 C276.624,25.7283333 277.684667,28.6666667 279.806,30.96 C281.927333,33.2533333 284.478667,34.4 287.46,34.4 Z M289.352,28.036 C287.976,28.036 286.757667,27.5271667 285.697,26.5095 C284.636333,25.4918333 284.106,24.037 284.106,22.145 C284.106,20.253 284.636333,18.791 285.697,17.759 C286.757667,16.727 287.976,16.211 289.352,16.211 C290.728,16.211 291.946333,16.7198333 293.007,17.7375 C294.067667,18.7551667 294.598,20.21 294.598,22.102 C294.598,23.994 294.067667,25.456 293.007,26.488 C291.946333,27.52 290.728,28.036 289.352,28.036 Z M314.056,8.643 C315.26,8.643 316.277667,8.22733333 317.109,7.396 C317.940333,6.56466667 318.356,5.53983333 318.356,4.3215 C318.356,3.10316667 317.940333,2.07833333 317.109,1.247 C316.277667,0.415666667 315.26,0 314.056,0 C312.852,0 311.834333,0.415666667 311.003,1.247 C310.171667,2.07833333 309.756,3.10316667 309.756,4.3215 C309.756,5.53983333 310.171667,6.56466667 311.003,7.396 C311.834333,8.22733333 312.852,8.643 314.056,8.643 Z M317.754,34.099 L317.754,10.105 L310.401,10.105 L310.401,34.099 L317.754,34.099 Z M333.557,34.099 L333.557,21.07 C333.557,19.522 333.9655,18.3251667 334.7825,17.4795 C335.5995,16.6338333 336.724667,16.211 338.158,16.211 C339.591333,16.211 340.7165,16.6338333 341.5335,17.4795 C342.3505,18.3251667 342.759,19.522 342.759,21.07 L342.759,21.07 L342.759,34.099 L350.069,34.099 L350.069,20.081 C350.069,16.9276667 349.216167,14.4336667 347.5105,12.599 C345.804833,10.7643333 343.576,9.847 340.824,9.847 C337.498667,9.847 335.076333,11.1083333 333.557,13.631 L333.557,13.631 L333.557,10.105 L326.204,10.105 L326.204,34.099 L333.557,34.099 Z M387.05,34.099 C390.203333,34.099 392.6615,33.3895 394.4245,31.9705 C396.1875,30.5515 397.069,28.638 397.069,26.23 C397.069,24.338 396.467,22.6896667 395.263,21.285 C394.059,19.8803333 392.439333,19.0346667 390.404,18.748 C394.388667,17.544 396.381,15.2363333 396.381,11.825 C396.381,9.53166667 395.470833,7.63966667 393.6505,6.149 C391.830167,4.65833333 389.386333,3.913 386.319,3.913 L386.319,3.913 L373.204,3.913 L373.204,34.099 L387.05,34.099 Z M385.373,16.039 L380.557,16.039 L380.557,9.503 L385.373,9.503 C386.433667,9.503 387.2865,9.7825 387.9315,10.3415 C388.5765,10.9005 388.899,11.7175 388.899,12.7925 C388.899,13.8675 388.5765,14.6773333 387.9315,15.222 C387.2865,15.7666667 386.433667,16.039 385.373,16.039 L385.373,16.039 Z M386.104,28.509 L380.557,28.509 L380.557,21.629 L386.19,21.629 C387.193333,21.629 388.010333,21.9443333 388.641,22.575 C389.271667,23.2056667 389.587,24.0513333 389.587,25.112 C389.587,26.1726667 389.257333,27.004 388.598,27.606 C387.938667,28.208 387.107333,28.509 386.104,28.509 L386.104,28.509 Z M411.539,34.099 L411.539,22.747 C411.539,20.7403333 411.961833,19.3356667 412.8075,18.533 C413.653167,17.7303333 414.921667,17.329 416.613,17.329 L416.613,17.329 L418.419,17.329 L418.419,9.847 C415.552333,9.847 413.259,11.4236667 411.539,14.577 L411.539,14.577 L411.539,10.105 L404.186,10.105 L404.186,34.099 L411.539,34.099 Z M428.073,8.643 C429.277,8.643 430.294667,8.22733333 431.126,7.396 C431.957333,6.56466667 432.373,5.53983333 432.373,4.3215 C432.373,3.10316667 431.957333,2.07833333 431.126,1.247 C430.294667,0.415666667 429.277,0 428.073,0 C426.869,0 425.851333,0.415666667 425.02,1.247 C424.188667,2.07833333 423.773,3.10316667 423.773,4.3215 C423.773,5.53983333 424.188667,6.56466667 425.02,7.396 C425.851333,8.22733333 426.869,8.643 428.073,8.643 Z M431.771,34.099 L431.771,10.105 L424.418,10.105 L424.418,34.099 L431.771,34.099 Z M449.294,34.4 C452.275333,34.4 454.654667,33.1386667 456.432,30.616 L456.432,30.616 L456.432,34.099 L463.785,34.099 L463.785,2.279 L456.432,2.279 L456.432,13.244 C454.798,10.9793333 452.4545,9.847 449.4015,9.847 C446.3485,9.847 443.761333,11.0008333 441.64,13.3085 C439.518667,15.6161667 438.458,18.5616667 438.458,22.145 C438.458,25.7283333 439.518667,28.6666667 441.64,30.96 C443.761333,33.2533333 446.312667,34.4 449.294,34.4 Z M451.186,28.036 C449.81,28.036 448.591667,27.5271667 447.531,26.5095 C446.470333,25.4918333 445.94,24.037 445.94,22.145 C445.94,20.253 446.470333,18.791 447.531,17.759 C448.591667,16.727 449.81,16.211 451.186,16.211 C452.562,16.211 453.780333,16.7198333 454.841,17.7375 C455.901667,18.7551667 456.432,20.21 456.432,22.102 C456.432,23.994 455.901667,25.456 454.841,26.488 C453.780333,27.52 452.562,28.036 451.186,28.036 Z M483.759,45.967 C485.851667,45.967 487.6935,45.6516667 489.2845,45.021 C490.8755,44.3903333 492.129667,43.5016667 493.047,42.355 C494.881667,40.119 495.799,37.324 495.799,33.97 L495.799,33.97 L495.799,10.105 L488.446,10.105 L488.446,13.244 C486.812,10.9793333 484.4685,9.847 481.4155,9.847 C478.3625,9.847 475.775333,11.0008333 473.654,13.3085 C471.532667,15.6161667 470.472,18.5616667 470.472,22.145 C470.472,25.7283333 471.532667,28.6666667 473.654,30.96 C475.775333,33.2533333 478.326667,34.4 481.308,34.4 C484.289333,34.4 486.668667,33.1386667 488.446,30.616 L488.446,30.616 L488.446,33.97 C488.446,35.9193333 488.001667,37.3455 487.113,38.2485 C486.224333,39.1515 485.106333,39.603 483.759,39.603 C481.007,39.603 479.287,38.7 478.599,36.894 L478.599,36.894 L471.375,36.894 C471.661667,39.9613333 472.88,42.2403333 475.03,43.731 C477.18,45.2216667 480.089667,45.967 483.759,45.967 Z M483.2,28.036 C481.824,28.036 480.605667,27.5271667 479.545,26.5095 C478.484333,25.4918333 477.954,24.037 477.954,22.145 C477.954,20.253 478.484333,18.791 479.545,17.759 C480.605667,16.727 481.824,16.211 483.2,16.211 C484.576,16.211 485.794333,16.7198333 486.855,17.7375 C487.915667,18.7551667 488.446,20.21 488.446,22.102 C488.446,23.994 487.915667,25.456 486.855,26.488 C485.794333,27.52 484.576,28.036 483.2,28.036 Z M514.44,34.4 C517.278,34.4 519.729,33.6618333 521.793,32.1855 C523.857,30.7091667 525.233,28.767 525.921,26.359 L525.921,26.359 L517.966,26.359 C517.622,26.789 517.3425,27.0971667 517.1275,27.2835 C516.9125,27.4698333 516.575667,27.6561667 516.117,27.8425 C515.658333,28.0288333 514.963167,28.122 514.0315,28.122 C513.099833,28.122 512.232667,27.7851667 511.43,27.1115 C510.627333,26.4378333 510.154333,25.5706667 510.011,24.51 L510.011,24.51 L526.523,24.51 C526.637667,23.7933333 526.695,23.0193333 526.695,22.188 C526.695,18.318 525.534,15.2936667 523.212,13.115 C520.89,10.9363333 517.966,9.847 514.44,9.847 C510.914,9.847 508.040167,10.9506667 505.8185,13.158 C503.596833,15.3653333 502.486,18.3323333 502.486,22.059 C502.486,25.7856667 503.604,28.7741667 505.84,31.0245 C508.076,33.2748333 510.942667,34.4 514.44,34.4 Z M519.041,19.909 L510.054,19.909 C510.254667,18.791 510.756333,17.8808333 511.559,17.1785 C512.361667,16.4761667 513.350667,16.125 514.526,16.125 C515.701333,16.125 516.719,16.4761667 517.579,17.1785 C518.439,17.8808333 518.926333,18.791 519.041,19.909 L519.041,19.909 Z" id="path-2"></path>
    </defs>
    <g id="页面-1" stroke="none" stroke-width="1" fill="none" fill-rule="evenodd">
        <g id="allchain-bridge" transform="translate(0.221824, 4.758585)" fill-rule="nonzero">
            <g id="编组-15" transform="translate(26.642080, -0.000000)">
                <g id="SWFTAllChainBridge">
                    <use fill="#FFFFFF" xlink:href="#path-1"></use>
                    <use stroke="#FFFFFF" stroke-width="9" fill="#0066F6" xlink:href="#path-1"></use>
                </g>
                <g id="SWFTAllChainBridge">
                    <use fill="#FFFFFF" xlink:href="#path-2"></use>
                    <use fill="#006AFF" xlink:href="#path-2"></use>
                </g>
            </g>
            <g id="编组-14" transform="translate(0.000000, 54.530895)">
                <g id="编组-9" transform="translate(0.000000, 3.092675)">
                    <rect id="矩形备份-4" fill="#2780FF" transform="translate(1.982920, 10.623966) scale(-1, 1) translate(-1.982920, -10.623966) " x="-7.99360578e-15" y="0" width="3.96583956" height="21.2479324"></rect>
                    <rect id="矩形备份-6" fill="#1C7BFF" transform="translate(10.080484, 10.623966) scale(-1, 1) translate(-10.080484, -10.623966) " x="8.417289" y="1.40850804" width="3.32639002" height="18.4309163"></rect>
                    <rect id="矩形备份-8" fill="#1A79FF" transform="translate(16.772054, 10.623966) scale(-1, 1) translate(-16.772054, -10.623966) " x="15.6700869" y="4.16575961" width="2.20393348" height="12.9164132"></rect>
                    <polygon id="矩形备份-4" fill="#2780FF" transform="translate(577.830998, 10.623966) scale(-1, 1) translate(-577.830998, -10.623966) " points="575.682835 0 579.979161 0 579.979161 21.2479324 575.682835 21.2479324 575.682835 8.4648793 575.682835 6.84112836 575.682835 5.46174119 575.682835 3.64578686"></polygon>
                    <rect id="矩形备份-6" fill="#1C7BFF" transform="translate(569.343034, 10.623966) scale(-1, 1) translate(-569.343034, -10.623966) " x="567.541239" y="1.40850804" width="3.60358919" height="18.4309163"></rect>
                    <rect id="矩形备份-8" fill="#1A79FF" transform="translate(561.809436, 10.623966) scale(-1, 1) translate(-561.809436, -10.623966) " x="560.615639" y="4.16575961" width="2.38759461" height="12.9164132"></rect>
                    <rect id="矩形备份-9" fill="#2A83FF" x="21.7309279" y="9.49628522" width="72.0381793" height="1.12768099"></rect>
                    <rect id="矩形备份-10" fill="#2A83FF" transform="translate(521.923170, 10.060126) scale(-1, 1) translate(-521.923170, -10.060126) " x="485.90408" y="9.49628522" width="72.0381793" height="1.12768099"></rect>
                </g>
                <path d="M180.965119,9.151096 C182.872227,9.151096 184.488345,9.8718576 185.813472,11.3133808 C187.138599,12.7549041 187.801162,14.5948607 187.801162,16.8332508 C187.801162,19.0716409 187.138599,20.9071208 185.813472,22.3396904 C184.488345,23.7722601 182.885657,24.4885449 181.00541,24.4885449 C179.125162,24.4885449 177.647825,23.7006316 176.573397,22.124805 L176.573397,22.124805 L176.573397,31.4454613 L171.980221,31.4454613 L171.980221,9.3122601 L176.573397,9.3122601 L176.573397,11.2730898 L176.729827,11.0661954 C177.741602,9.7894625 179.153366,9.151096 180.965119,9.151096 Z M337.446493,9.151096 C339.649069,9.151096 341.475595,9.8315666 342.926072,11.1925078 C344.376549,12.553449 345.101787,14.4426502 345.101787,16.8601115 C345.101787,17.379418 345.065973,17.8629103 344.994345,18.3105883 L344.994345,18.3105883 L334.679843,18.3105883 L334.717315,18.526966 C334.83758,19.0920351 335.120557,19.5615996 335.566245,19.9356595 C336.067645,20.3564768 336.609335,20.5668855 337.191317,20.5668855 C337.773298,20.5668855 338.207546,20.5086873 338.49406,20.3922911 C338.780574,20.2758948 338.990982,20.1594985 339.125286,20.0431022 C339.259589,19.9267059 339.434184,19.7342044 339.649069,19.4655976 L339.649069,19.4655976 L344.618295,19.4655976 L344.526611,19.7625573 C344.072008,21.1302634 343.243028,22.2444842 342.03967,23.1052198 C340.750357,24.0274366 339.219298,24.4885449 337.446493,24.4885449 C335.261824,24.4885449 333.471112,23.7856904 332.074357,22.3799815 C330.677602,20.9742725 329.979224,19.1074551 329.979224,16.7795294 C329.979224,14.4516038 330.673125,12.5982168 332.060927,11.2193685 C333.448728,9.8405202 335.243917,9.151096 337.446493,9.151096 Z M419.519304,9.151096 C421.426413,9.151096 422.89032,9.8584273 423.911026,11.2730898 L423.911026,11.2730898 L423.911026,9.3122601 L428.504202,9.3122601 L428.504202,24.3005202 L423.911026,24.3005202 L423.911026,22.124805 L423.749861,22.3445631 C422.65838,23.7738843 421.22581,24.4885449 419.452152,24.4885449 C417.589812,24.4885449 415.996078,23.7722601 414.670951,22.3396904 C413.345824,20.9071208 412.683261,19.0716409 412.683261,16.8332508 C412.683261,14.5948607 413.345824,12.7549041 414.670951,11.3133808 C415.996078,9.8718576 417.612196,9.151096 419.519304,9.151096 Z M119.736196,5.1757152 C121.768654,5.1757152 123.411633,5.6368236 124.665131,6.5590403 C125.91863,7.481257 126.57224,8.9362106 126.625961,10.923901 L126.625961,10.923901 L121.629874,10.923901 L121.600526,10.7028807 C121.507675,10.1289685 121.298095,9.6788587 120.971788,9.3525511 C120.604692,8.9854551 120.13463,8.8019072 119.561602,8.8019072 C118.988574,8.8019072 118.518512,8.9541177 118.151416,9.2585387 C117.78432,9.5629598 117.600772,10.0016842 117.600772,10.5747121 C117.600772,11.14774 117.77089,11.6088483 118.111125,11.9580372 C118.45136,12.307226 118.894562,12.5758329 119.440729,12.7638576 C119.986896,12.9518824 120.595738,13.1309536 121.267255,13.3010712 C121.938772,13.4711889 122.605812,13.6771208 123.268376,13.9188669 C123.930939,14.160613 124.535305,14.4605573 125.081472,14.8186997 C125.627639,15.1768421 126.07084,15.6827183 126.411075,16.3363282 C126.751311,16.9899381 126.921428,17.7733746 126.921428,18.6866378 C126.921428,20.2803716 126.272295,21.6457895 124.974029,22.7828917 C123.675763,23.9199938 121.965633,24.4885449 119.843639,24.4885449 C117.721645,24.4885449 116.011515,23.978192 114.713249,22.9574861 C113.414983,21.9367802 112.765849,20.4863034 112.765849,18.6060558 L112.765849,18.6060558 L117.654493,18.6060558 L117.674499,18.7979903 C117.848019,20.1742321 118.611357,20.862353 119.964512,20.862353 C120.627075,20.862353 121.146382,20.6877585 121.522432,20.3385697 C121.898481,19.9893808 122.086506,19.5461796 122.086506,19.008966 C122.086506,18.4717524 121.916388,18.0330279 121.576153,17.6927926 C121.235918,17.3525573 120.792716,17.0839505 120.246549,16.8869722 C119.700382,16.6899938 119.09154,16.5064459 118.420023,16.3363282 C117.748506,16.1662106 117.081466,15.9558019 116.418902,15.7051022 C115.756339,15.4544025 115.151973,15.1544582 114.605806,14.8052694 C114.059639,14.4560805 113.616438,13.9546812 113.276202,13.3010712 C112.935967,12.6474613 112.765849,11.8729784 112.765849,10.9776223 C112.765849,9.2227245 113.419459,7.8170155 114.726679,6.7604954 C116.033899,5.7039753 117.703738,5.1757152 119.736196,5.1757152 Z M401.74201,5.1757152 C403.774468,5.1757152 405.417447,5.6368236 406.670945,6.5590403 C407.924444,7.481257 408.578053,8.9362106 408.631775,10.923901 L408.631775,10.923901 L403.635688,10.923901 L403.60634,10.7028807 C403.513489,10.1289685 403.303909,9.6788587 402.977601,9.3525511 C402.610505,8.9854551 402.140444,8.8019072 401.567416,8.8019072 C400.994388,8.8019072 400.524326,8.9541177 400.15723,9.2585387 C399.790134,9.5629598 399.606586,10.0016842 399.606586,10.5747121 C399.606586,11.14774 399.776704,11.6088483 400.116939,11.9580372 C400.457174,12.307226 400.900375,12.5758329 401.446543,12.7638576 C401.99271,12.9518824 402.601552,13.1309536 403.273069,13.3010712 C403.944586,13.4711889 404.611626,13.6771208 405.27419,13.9188669 C405.936753,14.160613 406.541118,14.4605573 407.087286,14.8186997 C407.633453,15.1768421 408.076654,15.6827183 408.416889,16.3363282 C408.757125,16.9899381 408.927242,17.7733746 408.927242,18.6866378 C408.927242,20.2803716 408.278109,21.6457895 406.979843,22.7828917 C405.681577,23.9199938 403.971447,24.4885449 401.849453,24.4885449 C399.727459,24.4885449 398.017329,23.978192 396.719063,22.9574861 C395.420796,21.9367802 394.771663,20.4863034 394.771663,18.6060558 L394.771663,18.6060558 L399.660307,18.6060558 L399.680313,18.7979903 C399.853833,20.1742321 400.61717,20.862353 401.970326,20.862353 C402.632889,20.862353 403.152196,20.6877585 403.528245,20.3385697 C403.904295,19.9893808 404.09232,19.5461796 404.09232,19.008966 C404.09232,18.4717524 403.922202,18.0330279 403.581967,17.6927926 C403.241731,17.3525573 402.79853,17.0839505 402.252363,16.8869722 C401.706196,16.6899938 401.097354,16.5064459 400.425837,16.3363282 C399.75432,16.1662106 399.087279,15.9558019 398.424716,15.7051022 C397.762153,15.4544025 397.157787,15.1544582 396.61162,14.8052694 C396.065453,14.4560805 395.622252,13.9546812 395.282016,13.3010712 C394.941781,12.6474613 394.771663,11.8729784 394.771663,10.9776223 C394.771663,9.2227245 395.425273,7.8170155 396.732493,6.7604954 C398.039713,5.7039753 399.709552,5.1757152 401.74201,5.1757152 Z M307.814685,9.151096 C309.739701,9.151096 311.293143,9.5898205 312.475013,10.4672694 C313.656883,11.3447183 314.283633,12.5444954 314.355261,14.0666007 L314.355261,14.0666007 L309.654642,14.0666007 L309.632092,13.8996333 C309.559579,13.4707467 309.388025,13.1727369 309.117428,13.0056038 C308.813007,12.817579 308.356376,12.7235666 307.747533,12.7235666 C306.547756,12.7235666 305.947868,13.0906626 305.947868,13.8248545 C305.947868,14.487418 306.68206,14.9440496 308.150444,15.1947493 C309.636735,15.445449 310.988722,15.830452 312.206407,16.3497585 C312.833156,16.6004582 313.356939,17.0167988 313.777756,17.5987802 C314.198574,18.1807616 314.408982,18.8925697 314.408982,19.7342044 C314.408982,21.1309598 313.809094,22.2725387 312.609317,23.1589412 C311.40954,24.0453437 309.896388,24.4885449 308.069862,24.4885449 C306.243335,24.4885449 304.72123,24.0722044 303.503546,23.2395233 C302.285862,22.4068421 301.623298,21.1757276 301.515855,19.5461796 L301.515855,19.5461796 L306.216475,19.5461796 L306.243986,19.7026036 C306.419463,20.5115841 307.054949,20.9160743 308.150444,20.9160743 C308.687657,20.9160743 309.130859,20.7907245 309.480047,20.5400248 C309.829236,20.2893251 310.003831,19.9669969 310.003831,19.5730403 C310.003831,19.1790836 309.71284,18.865709 309.130859,18.6329164 C308.548877,18.4001239 307.846023,18.2031455 307.022295,18.0419815 C306.198568,17.8808174 305.370363,17.6793623 304.537682,17.4376161 C303.705001,17.19587 302.99767,16.7750527 302.415688,16.1751641 C301.833707,15.5752756 301.542716,14.791839 301.542716,13.8248545 C301.542716,12.4997276 302.10679,11.3894861 303.234939,10.4941301 C304.363088,9.598774 305.88967,9.151096 307.814685,9.151096 Z M288.318307,9.151096 C290.225416,9.151096 291.689323,9.8584273 292.710029,11.2730898 L292.710029,11.2730898 L292.710029,9.3122601 L297.303205,9.3122601 L297.303205,24.3005202 L292.710029,24.3005202 L292.710029,22.124805 L292.548865,22.3445631 C291.457383,23.7738843 290.024813,24.4885449 288.251156,24.4885449 C286.388815,24.4885449 284.795081,23.7722601 283.469955,22.3396904 C282.144828,20.9071208 281.482264,19.0716409 281.482264,16.8332508 C281.482264,14.5948607 282.144828,12.7549041 283.469955,11.3133808 C284.795081,9.8718576 286.411199,9.151096 288.318307,9.151096 Z M208.179465,9.151096 C210.382041,9.151096 212.208568,9.8315666 213.659044,11.1925078 C215.109521,12.553449 215.83476,14.4426502 215.83476,16.8601115 C215.83476,17.379418 215.798945,17.8629103 215.727317,18.3105883 L215.727317,18.3105883 L205.412815,18.3105883 L205.450288,18.526966 C205.570553,19.0920351 205.853529,19.5615996 206.299218,19.9356595 C206.800617,20.3564768 207.342308,20.5668855 207.924289,20.5668855 C208.50627,20.5668855 208.940518,20.5086873 209.227032,20.3922911 C209.513546,20.2758948 209.723955,20.1594985 209.858258,20.0431022 C209.992561,19.9267059 210.167156,19.7342044 210.382041,19.4655976 L210.382041,19.4655976 L215.351267,19.4655976 L215.259583,19.7625573 C214.804981,21.1302634 213.976,22.2444842 212.772642,23.1052198 C211.483329,24.0274366 209.95227,24.4885449 208.179465,24.4885449 C205.994797,24.4885449 204.204085,23.7856904 202.807329,22.3799815 C201.410574,20.9742725 200.712196,19.1074551 200.712196,16.7795294 C200.712196,14.4516038 201.406097,12.5982168 202.793899,11.2193685 C204.181701,9.8405202 205.97689,9.151096 208.179465,9.151096 Z M450.386704,9.151096 C452.589279,9.151096 454.415806,9.8315666 455.866282,11.1925078 C457.316759,12.553449 458.041998,14.4426502 458.041998,16.8601115 C458.041998,17.379418 458.006183,17.8629103 457.934555,18.3105883 L457.934555,18.3105883 L447.620053,18.3105883 L447.657526,18.526966 C447.777791,19.0920351 448.060768,19.5615996 448.506456,19.9356595 C449.007855,20.3564768 449.549546,20.5668855 450.131527,20.5668855 C450.713508,20.5668855 451.147756,20.5086873 451.43427,20.3922911 C451.720784,20.2758948 451.931193,20.1594985 452.065496,20.0431022 C452.199799,19.9267059 452.374394,19.7342044 452.589279,19.4655976 L452.589279,19.4655976 L457.558505,19.4655976 L457.466821,19.7625573 C457.012219,21.1302634 456.183239,22.2444842 454.97988,23.1052198 C453.690567,24.0274366 452.159508,24.4885449 450.386704,24.4885449 C448.202035,24.4885449 446.411323,23.7856904 445.014567,22.3799815 C443.617812,20.9742725 442.919434,19.1074551 442.919434,16.7795294 C442.919434,14.4516038 443.613335,12.5982168 445.001137,11.2193685 C446.388939,9.8405202 448.184128,9.151096 450.386704,9.151096 Z M471.118673,9.151096 L471.118673,13.8248545 L469.990524,13.8248545 L469.731897,13.8300774 C468.803773,13.8683788 468.097592,14.1173375 467.613354,14.5769536 C467.085094,15.078353 466.820964,15.9558019 466.820964,17.2093003 L466.820964,17.2093003 L466.820964,24.3005202 L462.227787,24.3005202 L462.227787,9.3122601 L466.820964,9.3122601 L466.820964,12.1057709 L466.963137,11.8544281 C468.020639,10.0522067 469.405818,9.151096 471.118673,9.151096 L471.118673,9.151096 Z M196.553267,4.4236161 L196.553267,24.3005202 L191.960091,24.3005202 L191.960091,4.4236161 L196.553267,4.4236161 Z M228.911435,9.151096 L228.911435,13.8248545 L227.783286,13.8248545 L227.524659,13.8300774 C226.596535,13.8683788 225.890354,14.1173375 225.406116,14.5769536 C224.877856,15.078353 224.613726,15.9558019 224.613726,17.2093003 L224.613726,17.2093003 L224.613726,24.3005202 L220.020549,24.3005202 L220.020549,9.3122601 L224.613726,9.3122601 L224.613726,12.1057709 L224.755899,11.8544281 C225.813401,10.0522067 227.198579,9.151096 228.911435,9.151096 L228.911435,9.151096 Z M440.103539,3.2686068 L440.103539,7.1634056 L439.907059,7.1677166 C439.400353,7.1907084 439.031599,7.3056677 438.800796,7.5125945 C438.541143,7.745387 438.411317,8.1572508 438.411317,8.7481858 L438.411317,8.7481858 L438.411317,9.3122601 L440.318425,9.3122601 L440.318425,13.1264768 L438.411317,13.1264768 L438.411317,24.3005202 L433.81814,24.3005202 L433.81814,13.1264768 L432.421385,13.1264768 L432.421385,9.3122601 L433.81814,9.3122601 L433.81814,8.7481858 L433.822824,8.4365522 C433.87591,6.697406 434.380225,5.413482 435.335769,4.5847802 C436.347521,3.7073313 437.936778,3.2686068 440.103539,3.2686068 L440.103539,3.2686068 Z M160.891236,9.151096 C162.717763,9.151096 164.16824,9.7151703 165.242667,10.8433189 C166.317094,11.9714675 166.854308,13.5383406 166.854308,15.5439381 L166.854308,15.5439381 L166.854308,24.3005202 L162.287992,24.3005202 L162.287992,16.1617338 L162.282676,15.9245577 C162.24369,15.0716689 161.990286,14.4031053 161.522462,13.9188669 C161.01211,13.3906068 160.309255,13.1264768 159.413899,13.1264768 C158.518543,13.1264768 157.815688,13.3906068 157.305336,13.9188669 C156.794983,14.447127 156.539806,15.1947493 156.539806,16.1617338 L156.539806,16.1617338 L156.539806,24.3005202 L151.97349,24.3005202 L151.97349,16.1617338 L151.968174,15.9245577 C151.929189,15.0716689 151.675784,14.4031053 151.207961,13.9188669 C150.697608,13.3906068 149.994753,13.1264768 149.099397,13.1264768 C148.204041,13.1264768 147.501187,13.3906068 146.990834,13.9188669 C146.480481,14.447127 146.225305,15.1947493 146.225305,16.1617338 L146.225305,16.1617338 L146.225305,24.3005202 L141.632128,24.3005202 L141.632128,9.3122601 L146.225305,9.3122601 L146.225305,11.5148359 L146.358221,11.3048343 C147.313107,9.8690088 148.781953,9.151096 150.76476,9.151096 C151.875001,9.151096 152.86437,9.4017957 153.732865,9.9031951 C154.60136,10.4045945 155.277354,11.1208793 155.760846,12.0520496 C156.315967,11.1746007 157.036729,10.4717462 157.923131,9.9434861 C158.809534,9.415226 159.798902,9.151096 160.891236,9.151096 Z M278.182877,5.444322 L278.182877,8.9362106 L270.500722,8.9362106 L270.500722,12.9921734 L276.248908,12.9921734 L276.248908,16.484062 L270.500722,16.484062 L270.500722,24.3005202 L265.907546,24.3005202 L265.907546,5.444322 L278.182877,5.444322 Z M136.371911,9.3122601 L136.371911,24.3005202 L131.778735,24.3005202 L131.778735,9.3122601 L136.371911,9.3122601 Z M323.671441,5.6592075 L323.671441,9.3122601 L326.679837,9.3122601 L326.679837,13.1264768 L323.671441,13.1264768 L323.671441,19.3581548 L323.676897,19.4850086 C323.731457,20.0988171 324.195224,20.4057214 325.068196,20.4057214 L325.068196,20.4057214 L326.706698,20.4057214 L326.706698,24.3005202 L324.369818,24.3005202 L324.038238,24.2955659 C322.514541,24.2493257 321.322325,23.8794044 320.461589,23.1858019 C319.539372,22.4426564 319.078264,21.166774 319.078264,19.3581548 L319.078264,19.3581548 L319.078264,13.1264768 L317.681509,13.1264768 L317.681509,9.3122601 L319.078264,9.3122601 L319.078264,5.6592075 L323.671441,5.6592075 Z M358.178462,9.151096 L358.178462,13.8248545 L357.050314,13.8248545 L356.791686,13.8300774 C355.863563,13.8683788 355.157382,14.1173375 354.673143,14.5769536 C354.144883,15.078353 353.880753,15.9558019 353.880753,17.2093003 L353.880753,17.2093003 L353.880753,24.3005202 L349.287577,24.3005202 L349.287577,9.3122601 L353.880753,9.3122601 L353.880753,12.1057709 L354.022927,11.8544281 C355.080429,10.0522067 356.465607,9.151096 358.178462,9.151096 L358.178462,9.151096 Z M246.643961,11.2999505 C247.781063,11.2999505 248.739094,11.6894304 249.518054,12.4683901 C250.297013,13.2473499 250.686493,14.2098576 250.686493,15.3559133 C250.686493,16.484062 250.297013,17.4376161 249.518054,18.2165759 C248.739094,18.9955356 247.781063,19.3850155 246.643961,19.3850155 C245.506859,19.3850155 244.548828,18.9955356 243.769868,18.2165759 C242.990908,17.4376161 242.601428,16.4795852 242.601428,15.342483 C242.601428,14.2053808 242.990908,13.2473499 243.769868,12.4683901 C244.548828,11.6894304 245.506859,11.2999505 246.643961,11.2999505 Z M375.910988,11.2999505 C377.048091,11.2999505 378.006122,11.6894304 378.785081,12.4683901 C379.564041,13.2473499 379.953521,14.2098576 379.953521,15.3559133 C379.953521,16.484062 379.564041,17.4376161 378.785081,18.2165759 C378.006122,18.9955356 377.048091,19.3850155 375.910988,19.3850155 C374.773886,19.3850155 373.815855,18.9955356 373.036896,18.2165759 C372.257936,17.4376161 371.868456,16.4795852 371.868456,15.342483 C371.868456,14.2053808 372.257936,13.2473499 373.036896,12.4683901 C373.815855,11.6894304 374.773886,11.2999505 375.910988,11.2999505 Z M134.061893,3 C134.813992,3 135.449695,3.2596533 135.969001,3.7789598 C136.488308,4.2982663 136.747961,4.9384459 136.747961,5.6994985 C136.747961,6.4605511 136.488308,7.1007307 135.969001,7.6200372 C135.449695,8.1393437 134.813992,8.3989969 134.061893,8.3989969 C133.309794,8.3989969 132.674091,8.1393437 132.154784,7.6200372 C131.635478,7.1007307 131.375825,6.4605511 131.375825,5.6994985 C131.375825,4.9384459 131.635478,4.2982663 132.154784,3.7789598 C132.674091,3.2596533 133.309794,3 134.061893,3 Z" id="Simpler•Faster•Safer" fill="#0067F7"></path>
                <path d="M180.965119,6.151096 C182.872227,6.151096 184.488345,6.8718576 185.813472,8.3133808 C187.138599,9.7549041 187.801162,11.5948607 187.801162,13.8332508 C187.801162,16.0716409 187.138599,17.9071208 185.813472,19.3396904 C184.488345,20.7722601 182.885657,21.4885449 181.00541,21.4885449 C179.125162,21.4885449 177.647825,20.7006316 176.573397,19.124805 L176.573397,19.124805 L176.573397,28.4454613 L171.980221,28.4454613 L171.980221,6.3122601 L176.573397,6.3122601 L176.573397,8.2730898 L176.729827,8.0661954 C177.741602,6.7894625 179.153366,6.151096 180.965119,6.151096 Z M337.446493,6.151096 C339.649069,6.151096 341.475595,6.8315666 342.926072,8.1925078 C344.376549,9.553449 345.101787,11.4426502 345.101787,13.8601115 C345.101787,14.379418 345.065973,14.8629103 344.994345,15.3105883 L344.994345,15.3105883 L334.679843,15.3105883 L334.717315,15.526966 C334.83758,16.0920351 335.120557,16.5615996 335.566245,16.9356595 C336.067645,17.3564768 336.609335,17.5668855 337.191317,17.5668855 C337.773298,17.5668855 338.207546,17.5086873 338.49406,17.3922911 C338.780574,17.2758948 338.990982,17.1594985 339.125286,17.0431022 C339.259589,16.9267059 339.434184,16.7342044 339.649069,16.4655976 L339.649069,16.4655976 L344.618295,16.4655976 L344.526611,16.7625573 C344.072008,18.1302634 343.243028,19.2444842 342.03967,20.1052198 C340.750357,21.0274366 339.219298,21.4885449 337.446493,21.4885449 C335.261824,21.4885449 333.471112,20.7856904 332.074357,19.3799815 C330.677602,17.9742725 329.979224,16.1074551 329.979224,13.7795294 C329.979224,11.4516038 330.673125,9.5982168 332.060927,8.2193685 C333.448728,6.8405202 335.243917,6.151096 337.446493,6.151096 Z M419.519304,6.151096 C421.426413,6.151096 422.89032,6.8584273 423.911026,8.2730898 L423.911026,8.2730898 L423.911026,6.3122601 L428.504202,6.3122601 L428.504202,21.3005202 L423.911026,21.3005202 L423.911026,19.124805 L423.749861,19.3445631 C422.65838,20.7738843 421.22581,21.4885449 419.452152,21.4885449 C417.589812,21.4885449 415.996078,20.7722601 414.670951,19.3396904 C413.345824,17.9071208 412.683261,16.0716409 412.683261,13.8332508 C412.683261,11.5948607 413.345824,9.7549041 414.670951,8.3133808 C415.996078,6.8718576 417.612196,6.151096 419.519304,6.151096 Z M119.736196,2.1757152 C121.768654,2.1757152 123.411633,2.6368236 124.665131,3.5590403 C125.91863,4.481257 126.57224,5.9362106 126.625961,7.923901 L126.625961,7.923901 L121.629874,7.923901 L121.600526,7.7028807 C121.507675,7.1289685 121.298095,6.6788587 120.971788,6.3525511 C120.604692,5.9854551 120.13463,5.8019072 119.561602,5.8019072 C118.988574,5.8019072 118.518512,5.9541177 118.151416,6.2585387 C117.78432,6.5629598 117.600772,7.0016842 117.600772,7.5747121 C117.600772,8.14774 117.77089,8.6088483 118.111125,8.9580372 C118.45136,9.307226 118.894562,9.5758329 119.440729,9.7638576 C119.986896,9.9518824 120.595738,10.1309536 121.267255,10.3010712 C121.938772,10.4711889 122.605812,10.6771208 123.268376,10.9188669 C123.930939,11.160613 124.535305,11.4605573 125.081472,11.8186997 C125.627639,12.1768421 126.07084,12.6827183 126.411075,13.3363282 C126.751311,13.9899381 126.921428,14.7733746 126.921428,15.6866378 C126.921428,17.2803716 126.272295,18.6457895 124.974029,19.7828917 C123.675763,20.9199938 121.965633,21.4885449 119.843639,21.4885449 C117.721645,21.4885449 116.011515,20.978192 114.713249,19.9574861 C113.414983,18.9367802 112.765849,17.4863034 112.765849,15.6060558 L112.765849,15.6060558 L117.654493,15.6060558 L117.674499,15.7979903 C117.848019,17.1742321 118.611357,17.862353 119.964512,17.862353 C120.627075,17.862353 121.146382,17.6877585 121.522432,17.3385697 C121.898481,16.9893808 122.086506,16.5461796 122.086506,16.008966 C122.086506,15.4717524 121.916388,15.0330279 121.576153,14.6927926 C121.235918,14.3525573 120.792716,14.0839505 120.246549,13.8869722 C119.700382,13.6899938 119.09154,13.5064459 118.420023,13.3363282 C117.748506,13.1662106 117.081466,12.9558019 116.418902,12.7051022 C115.756339,12.4544025 115.151973,12.1544582 114.605806,11.8052694 C114.059639,11.4560805 113.616438,10.9546812 113.276202,10.3010712 C112.935967,9.6474613 112.765849,8.8729784 112.765849,7.9776223 C112.765849,6.2227245 113.419459,4.8170155 114.726679,3.7604954 C116.033899,2.7039753 117.703738,2.1757152 119.736196,2.1757152 Z M401.74201,2.1757152 C403.774468,2.1757152 405.417447,2.6368236 406.670945,3.5590403 C407.924444,4.481257 408.578053,5.9362106 408.631775,7.923901 L408.631775,7.923901 L403.635688,7.923901 L403.60634,7.7028807 C403.513489,7.1289685 403.303909,6.6788587 402.977601,6.3525511 C402.610505,5.9854551 402.140444,5.8019072 401.567416,5.8019072 C400.994388,5.8019072 400.524326,5.9541177 400.15723,6.2585387 C399.790134,6.5629598 399.606586,7.0016842 399.606586,7.5747121 C399.606586,8.14774 399.776704,8.6088483 400.116939,8.9580372 C400.457174,9.307226 400.900375,9.5758329 401.446543,9.7638576 C401.99271,9.9518824 402.601552,10.1309536 403.273069,10.3010712 C403.944586,10.4711889 404.611626,10.6771208 405.27419,10.9188669 C405.936753,11.160613 406.541118,11.4605573 407.087286,11.8186997 C407.633453,12.1768421 408.076654,12.6827183 408.416889,13.3363282 C408.757125,13.9899381 408.927242,14.7733746 408.927242,15.6866378 C408.927242,17.2803716 408.278109,18.6457895 406.979843,19.7828917 C405.681577,20.9199938 403.971447,21.4885449 401.849453,21.4885449 C399.727459,21.4885449 398.017329,20.978192 396.719063,19.9574861 C395.420796,18.9367802 394.771663,17.4863034 394.771663,15.6060558 L394.771663,15.6060558 L399.660307,15.6060558 L399.680313,15.7979903 C399.853833,17.1742321 400.61717,17.862353 401.970326,17.862353 C402.632889,17.862353 403.152196,17.6877585 403.528245,17.3385697 C403.904295,16.9893808 404.09232,16.5461796 404.09232,16.008966 C404.09232,15.4717524 403.922202,15.0330279 403.581967,14.6927926 C403.241731,14.3525573 402.79853,14.0839505 402.252363,13.8869722 C401.706196,13.6899938 401.097354,13.5064459 400.425837,13.3363282 C399.75432,13.1662106 399.087279,12.9558019 398.424716,12.7051022 C397.762153,12.4544025 397.157787,12.1544582 396.61162,11.8052694 C396.065453,11.4560805 395.622252,10.9546812 395.282016,10.3010712 C394.941781,9.6474613 394.771663,8.8729784 394.771663,7.9776223 C394.771663,6.2227245 395.425273,4.8170155 396.732493,3.7604954 C398.039713,2.7039753 399.709552,2.1757152 401.74201,2.1757152 Z M307.814685,6.151096 C309.739701,6.151096 311.293143,6.5898205 312.475013,7.4672694 C313.656883,8.3447183 314.283633,9.5444954 314.355261,11.0666007 L314.355261,11.0666007 L309.654642,11.0666007 L309.632092,10.8996333 C309.559579,10.4707467 309.388025,10.1727369 309.117428,10.0056038 C308.813007,9.817579 308.356376,9.7235666 307.747533,9.7235666 C306.547756,9.7235666 305.947868,10.0906626 305.947868,10.8248545 C305.947868,11.487418 306.68206,11.9440496 308.150444,12.1947493 C309.636735,12.445449 310.988722,12.830452 312.206407,13.3497585 C312.833156,13.6004582 313.356939,14.0167988 313.777756,14.5987802 C314.198574,15.1807616 314.408982,15.8925697 314.408982,16.7342044 C314.408982,18.1309598 313.809094,19.2725387 312.609317,20.1589412 C311.40954,21.0453437 309.896388,21.4885449 308.069862,21.4885449 C306.243335,21.4885449 304.72123,21.0722044 303.503546,20.2395233 C302.285862,19.4068421 301.623298,18.1757276 301.515855,16.5461796 L301.515855,16.5461796 L306.216475,16.5461796 L306.243986,16.7026036 C306.419463,17.5115841 307.054949,17.9160743 308.150444,17.9160743 C308.687657,17.9160743 309.130859,17.7907245 309.480047,17.5400248 C309.829236,17.2893251 310.003831,16.9669969 310.003831,16.5730403 C310.003831,16.1790836 309.71284,15.865709 309.130859,15.6329164 C308.548877,15.4001239 307.846023,15.2031455 307.022295,15.0419815 C306.198568,14.8808174 305.370363,14.6793623 304.537682,14.4376161 C303.705001,14.19587 302.99767,13.7750527 302.415688,13.1751641 C301.833707,12.5752756 301.542716,11.791839 301.542716,10.8248545 C301.542716,9.4997276 302.10679,8.3894861 303.234939,7.4941301 C304.363088,6.598774 305.88967,6.151096 307.814685,6.151096 Z M288.318307,6.151096 C290.225416,6.151096 291.689323,6.8584273 292.710029,8.2730898 L292.710029,8.2730898 L292.710029,6.3122601 L297.303205,6.3122601 L297.303205,21.3005202 L292.710029,21.3005202 L292.710029,19.124805 L292.548865,19.3445631 C291.457383,20.7738843 290.024813,21.4885449 288.251156,21.4885449 C286.388815,21.4885449 284.795081,20.7722601 283.469955,19.3396904 C282.144828,17.9071208 281.482264,16.0716409 281.482264,13.8332508 C281.482264,11.5948607 282.144828,9.7549041 283.469955,8.3133808 C284.795081,6.8718576 286.411199,6.151096 288.318307,6.151096 Z M208.179465,6.151096 C210.382041,6.151096 212.208568,6.8315666 213.659044,8.1925078 C215.109521,9.553449 215.83476,11.4426502 215.83476,13.8601115 C215.83476,14.379418 215.798945,14.8629103 215.727317,15.3105883 L215.727317,15.3105883 L205.412815,15.3105883 L205.450288,15.526966 C205.570553,16.0920351 205.853529,16.5615996 206.299218,16.9356595 C206.800617,17.3564768 207.342308,17.5668855 207.924289,17.5668855 C208.50627,17.5668855 208.940518,17.5086873 209.227032,17.3922911 C209.513546,17.2758948 209.723955,17.1594985 209.858258,17.0431022 C209.992561,16.9267059 210.167156,16.7342044 210.382041,16.4655976 L210.382041,16.4655976 L215.351267,16.4655976 L215.259583,16.7625573 C214.804981,18.1302634 213.976,19.2444842 212.772642,20.1052198 C211.483329,21.0274366 209.95227,21.4885449 208.179465,21.4885449 C205.994797,21.4885449 204.204085,20.7856904 202.807329,19.3799815 C201.410574,17.9742725 200.712196,16.1074551 200.712196,13.7795294 C200.712196,11.4516038 201.406097,9.5982168 202.793899,8.2193685 C204.181701,6.8405202 205.97689,6.151096 208.179465,6.151096 Z M450.386704,6.151096 C452.589279,6.151096 454.415806,6.8315666 455.866282,8.1925078 C457.316759,9.553449 458.041998,11.4426502 458.041998,13.8601115 C458.041998,14.379418 458.006183,14.8629103 457.934555,15.3105883 L457.934555,15.3105883 L447.620053,15.3105883 L447.657526,15.526966 C447.777791,16.0920351 448.060768,16.5615996 448.506456,16.9356595 C449.007855,17.3564768 449.549546,17.5668855 450.131527,17.5668855 C450.713508,17.5668855 451.147756,17.5086873 451.43427,17.3922911 C451.720784,17.2758948 451.931193,17.1594985 452.065496,17.0431022 C452.199799,16.9267059 452.374394,16.7342044 452.589279,16.4655976 L452.589279,16.4655976 L457.558505,16.4655976 L457.466821,16.7625573 C457.012219,18.1302634 456.183239,19.2444842 454.97988,20.1052198 C453.690567,21.0274366 452.159508,21.4885449 450.386704,21.4885449 C448.202035,21.4885449 446.411323,20.7856904 445.014567,19.3799815 C443.617812,17.9742725 442.919434,16.1074551 442.919434,13.7795294 C442.919434,11.4516038 443.613335,9.5982168 445.001137,8.2193685 C446.388939,6.8405202 448.184128,6.151096 450.386704,6.151096 Z M471.118673,6.151096 L471.118673,10.8248545 L469.990524,10.8248545 L469.731897,10.8300774 C468.803773,10.8683788 468.097592,11.1173375 467.613354,11.5769536 C467.085094,12.078353 466.820964,12.9558019 466.820964,14.2093003 L466.820964,14.2093003 L466.820964,21.3005202 L462.227787,21.3005202 L462.227787,6.3122601 L466.820964,6.3122601 L466.820964,9.1057709 L466.963137,8.8544281 C468.020639,7.0522067 469.405818,6.151096 471.118673,6.151096 L471.118673,6.151096 Z M323.671441,2.6592075 L323.671441,6.3122601 L326.679837,6.3122601 L326.679837,10.1264768 L323.671441,10.1264768 L323.671441,16.3581548 L323.676897,16.4850086 C323.731457,17.0988171 324.195224,17.4057214 325.068196,17.4057214 L325.068196,17.4057214 L326.706698,17.4057214 L326.706698,21.3005202 L324.369818,21.3005202 L324.038238,21.2955659 C322.514541,21.2493257 321.322325,20.8794044 320.461589,20.1858019 C319.539372,19.4426564 319.078264,18.166774 319.078264,16.3581548 L319.078264,16.3581548 L319.078264,10.1264768 L317.681509,10.1264768 L317.681509,6.3122601 L319.078264,6.3122601 L319.078264,2.6592075 L323.671441,2.6592075 Z M358.178462,6.151096 L358.178462,10.8248545 L357.050314,10.8248545 L356.791686,10.8300774 C355.863563,10.8683788 355.157382,11.1173375 354.673143,11.5769536 C354.144883,12.078353 353.880753,12.9558019 353.880753,14.2093003 L353.880753,14.2093003 L353.880753,21.3005202 L349.287577,21.3005202 L349.287577,6.3122601 L353.880753,6.3122601 L353.880753,9.1057709 L354.022927,8.8544281 C355.080429,7.0522067 356.465607,6.151096 358.178462,6.151096 L358.178462,6.151096 Z M160.891236,6.151096 C162.717763,6.151096 164.16824,6.7151703 165.242667,7.8433189 C166.317094,8.9714675 166.854308,10.5383406 166.854308,12.5439381 L166.854308,12.5439381 L166.854308,21.3005202 L162.287992,21.3005202 L162.287992,13.1617338 L162.282676,12.9245577 C162.24369,12.0716689 161.990286,11.4031053 161.522462,10.9188669 C161.01211,10.3906068 160.309255,10.1264768 159.413899,10.1264768 C158.518543,10.1264768 157.815688,10.3906068 157.305336,10.9188669 C156.794983,11.447127 156.539806,12.1947493 156.539806,13.1617338 L156.539806,13.1617338 L156.539806,21.3005202 L151.97349,21.3005202 L151.97349,13.1617338 L151.968174,12.9245577 C151.929189,12.0716689 151.675784,11.4031053 151.207961,10.9188669 C150.697608,10.3906068 149.994753,10.1264768 149.099397,10.1264768 C148.204041,10.1264768 147.501187,10.3906068 146.990834,10.9188669 C146.480481,11.447127 146.225305,12.1947493 146.225305,13.1617338 L146.225305,13.1617338 L146.225305,21.3005202 L141.632128,21.3005202 L141.632128,6.3122601 L146.225305,6.3122601 L146.225305,8.5148359 L146.358221,8.3048343 C147.313107,6.8690088 148.781953,6.151096 150.76476,6.151096 C151.875001,6.151096 152.86437,6.4017957 153.732865,6.9031951 C154.60136,7.4045945 155.277354,8.1208793 155.760846,9.0520496 C156.315967,8.1746007 157.036729,7.4717462 157.923131,6.9434861 C158.809534,6.415226 159.798902,6.151096 160.891236,6.151096 Z M440.103539,0.2686068 L440.103539,4.1634056 L439.907059,4.1677166 C439.400353,4.1907084 439.031599,4.3056677 438.800796,4.5125945 C438.541143,4.745387 438.411317,5.1572508 438.411317,5.7481858 L438.411317,5.7481858 L438.411317,6.3122601 L440.318425,6.3122601 L440.318425,10.1264768 L438.411317,10.1264768 L438.411317,21.3005202 L433.81814,21.3005202 L433.81814,10.1264768 L432.421385,10.1264768 L432.421385,6.3122601 L433.81814,6.3122601 L433.81814,5.7481858 L433.822824,5.4365522 C433.87591,3.697406 434.380225,2.413482 435.335769,1.5847802 C436.347521,0.7073313 437.936778,0.2686068 440.103539,0.2686068 L440.103539,0.2686068 Z M278.182877,2.444322 L278.182877,5.9362106 L270.500722,5.9362106 L270.500722,9.9921734 L276.248908,9.9921734 L276.248908,13.484062 L270.500722,13.484062 L270.500722,21.3005202 L265.907546,21.3005202 L265.907546,2.444322 L278.182877,2.444322 Z M136.371911,6.3122601 L136.371911,21.3005202 L131.778735,21.3005202 L131.778735,6.3122601 L136.371911,6.3122601 Z M196.553267,1.4236161 L196.553267,21.3005202 L191.960091,21.3005202 L191.960091,1.4236161 L196.553267,1.4236161 Z M228.911435,6.151096 L228.911435,10.8248545 L227.783286,10.8248545 L227.524659,10.8300774 C226.596535,10.8683788 225.890354,11.1173375 225.406116,11.5769536 C224.877856,12.078353 224.613726,12.9558019 224.613726,14.2093003 L224.613726,14.2093003 L224.613726,21.3005202 L220.020549,21.3005202 L220.020549,6.3122601 L224.613726,6.3122601 L224.613726,9.1057709 L224.755899,8.8544281 C225.813401,7.0522067 227.198579,6.151096 228.911435,6.151096 L228.911435,6.151096 Z M375.910988,8.2999505 C377.048091,8.2999505 378.006122,8.6894304 378.785081,9.4683901 C379.564041,10.2473499 379.953521,11.2098576 379.953521,12.3559133 C379.953521,13.484062 379.564041,14.4376161 378.785081,15.2165759 C378.006122,15.9955356 377.048091,16.3850155 375.910988,16.3850155 C374.773886,16.3850155 373.815855,15.9955356 373.036896,15.2165759 C372.257936,14.4376161 371.868456,13.4795852 371.868456,12.342483 C371.868456,11.2053808 372.257936,10.2473499 373.036896,9.4683901 C373.815855,8.6894304 374.773886,8.2999505 375.910988,8.2999505 Z M246.643961,8.2999505 C247.781063,8.2999505 248.739094,8.6894304 249.518054,9.4683901 C250.297013,10.2473499 250.686493,11.2098576 250.686493,12.3559133 C250.686493,13.484062 250.297013,14.4376161 249.518054,15.2165759 C248.739094,15.9955356 247.781063,16.3850155 246.643961,16.3850155 C245.506859,16.3850155 244.548828,15.9955356 243.769868,15.2165759 C242.990908,14.4376161 242.601428,13.4795852 242.601428,12.342483 C242.601428,11.2053808 242.990908,10.2473499 243.769868,9.4683901 C244.548828,8.6894304 245.506859,8.2999505 246.643961,8.2999505 Z M134.061893,0 C134.813992,0 135.449695,0.2596533 135.969001,0.7789598 C136.488308,1.2982663 136.747961,1.9384459 136.747961,2.6994985 C136.747961,3.4605511 136.488308,4.1007307 135.969001,4.6200372 C135.449695,5.1393437 134.813992,5.3989969 134.061893,5.3989969 C133.309794,5.3989969 132.674091,5.1393437 132.154784,4.6200372 C131.635478,4.1007307 131.375825,3.4605511 131.375825,2.6994985 C131.375825,1.9384459 131.635478,1.2982663 132.154784,0.7789598 C132.674091,0.2596533 133.309794,0 134.061893,0 Z" id="Simpler•Faster•Safer" fill="#FFFFFF"></path>
                <path d="M179.850401,17.5131641 C178.990859,17.5131641 178.229806,17.1908359 177.567243,16.5461796 C176.904679,15.9015233 176.573397,14.9882601 176.573397,13.8063901 C176.573397,12.6245202 176.904679,11.7157338 177.567243,11.080031 C178.229806,10.4443282 178.990859,10.1264768 179.850401,10.1264768 C180.709942,10.1264768 181.470995,10.448805 182.133558,11.0934613 C182.796122,11.7381177 183.127404,12.6513808 183.127404,13.8332508 C183.127404,15.0151208 182.796122,15.9283839 182.133558,16.5730403 C181.470995,17.1997895 180.709942,17.5131641 179.850401,17.5131641 Z" id="路径" fill="#1774F6"></path>
                <path d="M211.053558,12.4364954 L205.439676,12.4364954 C205.565026,11.7381177 205.8784,11.1695666 206.3798,10.7308421 C206.881199,10.2921177 207.498995,10.0727555 208.233187,10.0727555 C208.967379,10.0727555 209.603082,10.2921177 210.140295,10.7308421 C210.677509,11.1695666 210.98193,11.7381177 211.053558,12.4364954 L211.053558,12.4364954 Z" id="路径" fill="#1774F6"></path>
                <path d="M289.433026,17.5131641 C288.573484,17.5131641 287.812431,17.1953127 287.149868,16.5596099 C286.487304,15.9239072 286.156023,15.0151208 286.156023,13.8332508 C286.156023,12.6513808 286.487304,11.7381177 287.149868,11.0934613 C287.812431,10.448805 288.573484,10.1264768 289.433026,10.1264768 C290.292568,10.1264768 291.05362,10.4443282 291.716184,11.080031 C292.378747,11.7157338 292.710029,12.6245202 292.710029,13.8063901 C292.710029,14.9882601 292.378747,15.9015233 291.716184,16.5461796 C291.05362,17.1908359 290.292568,17.5131641 289.433026,17.5131641 Z" id="路径" fill="#1774F6"></path>
                <path d="M340.320586,12.4364954 L334.706704,12.4364954 C334.832054,11.7381177 335.145428,11.1695666 335.646828,10.7308421 C336.148227,10.2921177 336.766023,10.0727555 337.500215,10.0727555 C338.234406,10.0727555 338.870109,10.2921177 339.407323,10.7308421 C339.944537,11.1695666 340.248958,11.7381177 340.320586,12.4364954 L340.320586,12.4364954 Z" id="路径" fill="#1774F6"></path>
                <path d="M453.260796,12.4364954 L447.646914,12.4364954 C447.772264,11.7381177 448.085639,11.1695666 448.587038,10.7308421 C449.088437,10.2921177 449.706233,10.0727555 450.440425,10.0727555 C451.174617,10.0727555 451.81032,10.2921177 452.347533,10.7308421 C452.884747,11.1695666 453.189168,11.7381177 453.260796,12.4364954 L453.260796,12.4364954 Z" id="路径" fill="#1774F6"></path>
                <path d="M420.634022,17.5131641 C419.774481,17.5131641 419.013428,17.1953127 418.350865,16.5596099 C417.688301,15.9239072 417.357019,15.0151208 417.357019,13.8332508 C417.357019,12.6513808 417.688301,11.7381177 418.350865,11.0934613 C419.013428,10.448805 419.774481,10.1264768 420.634022,10.1264768 C421.493564,10.1264768 422.254617,10.4443282 422.91718,11.080031 C423.579744,11.7157338 423.911026,12.6245202 423.911026,13.8063901 C423.911026,14.9882601 423.579744,15.9015233 422.91718,16.5461796 C422.254617,17.1908359 421.493564,17.5131641 420.634022,17.5131641 Z" id="路径" fill="#1774F6"></path>
            </g>
        </g>
    </g>
</svg>